<svg width="37" height="51" viewBox="0 0 37 51" fill="none" xmlns="http://www.w3.org/2000/svg">
<path d="M0.509999 10.4927C0.509999 6.82028 0.509999 4.98405 1.20943 3.58065C1.82586 2.34606 2.80977 1.34235 4.02 0.713507C5.39571 3.57628e-07 7.19571 0 10.7957 0H26.2243C29.8243 0 31.6243 3.57628e-07 33 0.713507C34.2093 1.3428 35.1922 2.34646 35.808 3.58065C36.51 4.98405 36.51 6.82028 36.51 10.4927V45.1398C36.51 47.9099 36.51 49.2923 35.952 50.0084C35.7126 50.3159 35.4085 50.5647 35.0622 50.7363C34.716 50.9079 34.3364 50.998 33.9514 51C33.054 51.0052 31.9869 50.1501 29.8551 48.4397L18.51 39.3478L7.16743 48.4397C5.03314 50.1501 3.966 51.0052 3.06857 51C2.68362 50.998 2.30401 50.9079 1.95776 50.7363C1.6115 50.5647 1.30744 50.3159 1.068 50.0084C0.509999 49.2923 0.509999 47.9099 0.509999 45.1398V10.4927Z" fill="#BB903C"/>
</svg>
