<svg width="45" height="45" viewBox="0 0 45 45" fill="none" xmlns="http://www.w3.org/2000/svg">
<path d="M16.875 41.0953C18.675 41.5226 20.559 41.7513 22.5 41.7513C34.926 41.7513 45 32.405 45 20.8741C45 9.34928 34.926 0 22.5 0C10.074 0 0 9.34627 0 20.8771C0 26.7329 2.598 32.0259 6.786 35.8173C6.4313 38.3712 5.34183 40.7659 3.651 42.7082C3.47095 42.9161 3.35684 43.1732 3.32326 43.4465C3.28969 43.7199 3.33817 43.9971 3.46251 44.2426C3.58685 44.4882 3.78139 44.691 4.02125 44.825C4.26112 44.959 4.53539 45.0183 4.809 44.9951C9.909 44.5798 13.932 43.2799 16.875 41.0953Z" fill="#BB903C"/>
</svg>
