<svg width="81" height="147" viewBox="0 0 81 147" fill="none" xmlns="http://www.w3.org/2000/svg">
<path d="M22.1949 85.0723V81.2797L30.153 74.3123C30.7495 73.7725 31.2574 73.2789 31.6764 72.8315C32.0954 72.377 32.415 71.9224 32.6352 71.4679C32.8554 71.0062 32.9655 70.5055 32.9655 69.9657C32.9655 69.362 32.8341 68.8471 32.5713 68.421C32.3085 67.9877 31.9463 67.6539 31.4846 67.4196C31.023 67.1852 30.4939 67.068 29.8973 67.068C29.2936 67.068 28.7645 67.1923 28.3099 67.4409C27.8554 67.6824 27.5003 68.0339 27.2446 68.4956C26.996 68.9572 26.8717 69.5183 26.8717 70.1788H21.8753C21.8753 68.6944 22.2091 67.4125 22.8767 66.3329C23.5443 65.2534 24.4818 64.4224 25.6892 63.84C26.9037 63.2505 28.3135 62.9558 29.9186 62.9558C31.5734 62.9558 33.0116 63.2328 34.2332 63.7868C35.4548 64.3407 36.3994 65.1149 37.067 66.1092C37.7417 67.0964 38.0791 68.2434 38.0791 69.5502C38.0791 70.3812 37.9122 71.2051 37.5784 72.0218C37.2446 72.8386 36.6444 73.7406 35.778 74.7278C34.9186 75.715 33.697 76.8975 32.1132 78.2754L29.5031 80.6831V80.8216H38.3454V85.0723H22.1949ZM49.6247 85.3706C47.9628 85.3706 46.4891 85.0865 45.2036 84.5183C43.9252 83.943 42.9166 83.1511 42.178 82.1426C41.4394 81.1341 41.0629 79.9728 41.0487 78.6589H46.3541C46.3754 79.1348 46.5281 79.5574 46.8122 79.9267C47.0963 80.2889 47.4834 80.573 47.9734 80.7789C48.4635 80.9849 49.021 81.0879 49.646 81.0879C50.271 81.0879 50.8215 80.9778 51.2973 80.7576C51.7803 80.5304 52.1567 80.2214 52.4266 79.8308C52.6965 79.4331 52.8279 78.9785 52.8207 78.4672C52.8279 77.9558 52.6823 77.5012 52.384 77.1035C52.0857 76.7058 51.6631 76.3968 51.1162 76.1767C50.5764 75.9565 49.9372 75.8464 49.1986 75.8464H47.0786V72.0964H49.1986C49.8449 72.0964 50.4131 71.9899 50.9031 71.7768C51.4003 71.5637 51.7874 71.2654 52.0644 70.8819C52.3413 70.4913 52.4763 70.0439 52.4692 69.5396C52.4763 69.0495 52.3591 68.6199 52.1176 68.2505C51.8832 67.8741 51.553 67.5829 51.1269 67.377C50.7078 67.171 50.2213 67.068 49.6673 67.068C49.085 67.068 48.5558 67.171 48.08 67.377C47.6112 67.5829 47.2384 67.8741 46.9614 68.2505C46.6844 68.627 46.5388 69.0637 46.5246 69.5609H41.4855C41.4997 68.2612 41.8619 67.1177 42.5722 66.1305C43.2824 65.1362 44.2483 64.3585 45.4699 63.7974C46.6986 63.2363 48.0977 62.9558 49.6673 62.9558C51.2298 62.9558 52.6041 63.2292 53.7902 63.7761C54.9763 64.323 55.8996 65.0687 56.5601 66.0133C57.2206 66.9508 57.5509 68.0126 57.5509 69.1987C57.558 70.4274 57.1567 71.4395 56.347 72.2349C55.5445 73.0304 54.5111 73.5204 53.2469 73.7051V73.8755C54.9372 74.0744 56.2121 74.6213 57.0715 75.5162C57.9379 76.411 58.3676 77.5297 58.3605 78.872C58.3605 80.1362 57.9877 81.2583 57.2419 82.2385C56.5033 83.2115 55.4734 83.9785 54.1524 84.5396C52.8385 85.0936 51.3293 85.3706 49.6247 85.3706Z" fill="black"/>
<path d="M39.4641 0L54.454 20.8177H24.4742L39.4641 0Z" fill="black"/>
<path d="M39.4641 146.557L24.4742 125.739L54.454 125.739L39.4641 146.557Z" fill="#121616"/>
</svg>
